<svg width="2342" height="2342" viewBox="0 0 2342 2342" fill="none" xmlns="http://www.w3.org/2000/svg">
<path d="M439.634 1065.97L261.183 921.726L412.813 823.644C421.169 818.344 426.83 813.252 430.02 807.993C433.3 802.651 434.962 796.891 434.962 790.881C434.962 780.864 431.233 772.434 423.865 765.756C416.587 759.203 406.927 755.906 395.201 755.906C387.743 755.906 379.791 757.867 371.704 761.749C364.561 765.13 356.923 769.637 348.971 775.021L208.933 868.511V703.735C208.933 691.297 204.62 681.239 196.084 673.852C187.772 666.631 176.765 663 163.466 663C150.168 663 139.161 666.673 130.849 673.852C122.313 681.239 118 691.297 118 703.735V1094.27C118 1106.7 122.313 1116.76 130.849 1124.15C139.161 1131.37 150.123 1135 163.466 1135C176.81 1135 187.772 1131.33 196.084 1124.15C204.62 1116.76 208.933 1106.7 208.933 1094.27V972.519L372.468 1114.51C381.813 1122.27 389.226 1127.45 395.156 1130.28C401.761 1133.46 409.982 1135 420.316 1135C430.065 1135 439.005 1132.12 446.958 1126.49C455.539 1120.35 460.121 1112.13 460.121 1102.7C460.121 1095.64 458.729 1089.3 455.898 1083.83C453.113 1078.49 447.856 1072.65 439.724 1065.97H439.634ZM870.532 763.919C851.618 752.859 832.928 753.527 815.721 764.211C808.757 768.51 800.49 777.192 800.445 793.97C787.506 783.911 774.073 775.689 760.281 769.387C740.602 760.455 717.375 755.906 691.137 755.906C659.643 755.906 631.159 761.206 606.449 771.641C581.829 782.075 560.713 796.307 543.641 814.003C526.659 831.616 513.63 852.067 504.869 874.73C496.153 897.268 491.75 921.058 491.75 945.474C491.75 969.89 496.153 993.68 504.869 1016.22C513.63 1038.88 526.659 1059.33 543.641 1076.94C560.669 1094.6 581.784 1108.87 606.405 1119.27C631.07 1129.7 659.554 1135 691.092 1135C715.668 1135 738.76 1130.37 759.696 1121.19C774.298 1114.8 787.911 1105.91 800.401 1094.68V1097.4C800.401 1114.09 808.757 1122.65 815.766 1126.9C824.616 1132.29 833.916 1135 843.396 1135C852.247 1135 861.367 1132.29 870.487 1126.94C877.765 1122.69 886.391 1114.09 886.391 1097.35V793.511C886.391 776.774 877.72 768.176 870.487 763.919H870.532ZM799.637 945.474C799.637 959.581 797.705 974.022 793.841 988.337C790.189 1002.1 783.838 1015.11 775.106 1026.74C766.525 1038.09 755.294 1047.48 741.815 1054.66C728.517 1061.71 711.489 1065.3 691.182 1065.3C670.875 1065.3 654.432 1061.71 640.864 1054.66C627.071 1047.48 615.749 1038.09 607.213 1026.78C598.497 1015.26 592.208 1002.36 588.434 988.379C584.615 974.022 582.638 959.623 582.638 945.516C582.638 931.409 584.57 917.009 588.434 902.652C592.163 888.67 598.497 875.774 607.213 864.254C615.749 852.944 627.071 843.553 640.864 836.374C654.432 829.279 671.369 825.69 691.182 825.69C710.995 825.69 728.517 829.279 741.815 836.332C755.339 843.511 766.525 852.902 775.106 864.254C783.822 875.774 790.112 888.712 793.886 902.652C797.75 916.968 799.682 931.409 799.682 945.516L799.637 945.474ZM1303.77 1065.97L1125.27 921.684L1276.9 823.603C1285.26 818.302 1290.87 813.21 1294.06 807.951C1297.34 802.609 1299 796.849 1299 790.839C1299 780.823 1295.27 772.392 1287.91 765.714C1280.63 759.161 1270.97 755.864 1259.24 755.864C1251.79 755.864 1243.83 757.826 1235.75 761.707C1228.6 765.088 1220.92 769.595 1213.01 774.979L1072.97 868.47V703.735C1072.97 691.297 1068.66 681.239 1060.13 673.852C1051.81 666.631 1040.81 663 1027.55 663C1014.3 663 1003.29 666.631 994.936 673.852C986.4 681.239 982.087 691.297 982.087 703.735V1094.27C982.087 1106.7 986.4 1116.76 994.936 1124.15C1003.25 1131.37 1014.21 1135 1027.55 1135C1040.9 1135 1051.86 1131.33 1060.17 1124.15C1068.71 1116.76 1073.02 1106.7 1073.02 1094.27V972.519L1236.55 1114.51C1245.9 1122.27 1253.31 1127.45 1259.24 1130.28C1265.85 1133.46 1274.07 1135 1284.4 1135C1294.15 1135 1303.09 1132.12 1311 1126.49C1319.58 1120.35 1324.16 1112.13 1324.16 1102.7C1324.16 1095.6 1322.77 1089.3 1319.94 1083.83C1317.2 1078.49 1311.9 1072.65 1303.77 1065.97ZM1750.7 763.919C1731.79 752.859 1713.1 753.527 1695.89 764.211C1688.93 768.51 1680.66 777.192 1680.62 793.928C1667.68 783.869 1654.24 775.647 1640.45 769.345C1620.77 760.413 1597.55 755.864 1571.31 755.864C1539.81 755.864 1511.33 761.165 1486.62 771.599C1462 782.033 1440.88 796.265 1423.86 813.962C1406.87 831.574 1393.8 852.025 1385.08 874.688C1376.37 897.226 1371.97 921.058 1371.97 945.432C1371.97 969.806 1376.37 993.638 1385.08 1016.18C1393.85 1038.84 1406.87 1059.29 1423.86 1076.9C1440.88 1094.56 1462 1108.83 1486.62 1119.22C1511.29 1129.66 1539.77 1134.96 1571.31 1134.96C1595.88 1134.96 1618.98 1130.33 1639.91 1121.14C1654.51 1114.76 1668.13 1105.87 1680.62 1094.64V1097.31C1680.62 1114.01 1688.97 1122.56 1695.98 1126.82C1704.83 1132.2 1714.13 1134.96 1723.61 1134.96C1732.51 1134.96 1741.58 1132.25 1750.7 1126.9C1757.98 1122.65 1766.61 1114.05 1766.61 1097.31V793.511C1766.61 776.774 1757.94 768.176 1750.7 763.919ZM1679.81 945.474C1679.81 959.581 1677.88 973.98 1674.01 988.337C1670.28 1002.28 1663.95 1015.22 1655.23 1026.74C1646.65 1038.09 1635.46 1047.48 1621.94 1054.66C1608.64 1061.71 1591.62 1065.3 1571.31 1065.3C1551 1065.3 1534.56 1061.71 1520.99 1054.66C1507.2 1047.48 1495.92 1038.09 1487.34 1026.78C1478.62 1015.26 1472.33 1002.36 1468.56 988.379C1464.74 974.063 1462.76 959.623 1462.76 945.516C1462.76 931.409 1464.7 917.009 1468.56 902.652C1472.29 888.67 1478.62 875.774 1487.34 864.254C1495.88 852.944 1507.2 843.553 1520.99 836.374C1534.56 829.279 1551.49 825.69 1571.31 825.69C1591.12 825.69 1608.64 829.279 1621.94 836.332C1635.46 843.511 1646.65 852.902 1655.23 864.254C1663.95 875.815 1670.28 888.712 1674.01 902.652C1677.88 917.009 1679.81 931.409 1679.81 945.516V945.474ZM2212.06 766.59C2203.75 759.495 2192.79 755.906 2179.49 755.906C2166.19 755.906 2155.27 759.495 2146.96 766.549C2138.42 773.853 2134.07 783.744 2134.07 796.056V982.452C2134.07 1038.92 2105.54 1065.26 2044.21 1065.26C1982.89 1065.26 1954.36 1038.96 1954.36 982.452V796.056C1954.36 783.744 1950 773.811 1941.46 766.549C1933.15 759.495 1922.19 755.906 1908.94 755.906C1895.68 755.906 1884.68 759.495 1876.41 766.59C1867.87 773.894 1863.51 783.828 1863.51 796.182V985.249C1863.51 1012.21 1868.77 1035.58 1879.15 1054.7C1889.48 1073.77 1903.41 1089.55 1920.44 1101.61C1937.33 1113.59 1956.92 1122.27 1978.66 1127.4C1999.87 1132.41 2021.93 1135 2044.26 1135C2066.59 1135 2088.65 1132.45 2109.9 1127.4C2131.6 1122.27 2151.18 1113.59 2168.08 1101.61C2185.15 1089.51 2199.03 1073.73 2209.37 1054.7C2219.74 1035.58 2225 1012.21 2225 985.249V796.182C2225 783.869 2220.64 773.894 2212.11 766.59H2212.06Z" fill="#262424"/>
<path d="M992.951 1270.92C992.951 1260.74 995.962 1252.74 1001.94 1246.94C1007.92 1241.14 1015.92 1238.22 1025.94 1238.22C1035.96 1238.22 1043.91 1241.14 1049.94 1246.94C1055.91 1252.74 1058.92 1260.74 1058.92 1270.92V1350.92H1085.89C1107.86 1350.92 1118.87 1359.72 1118.87 1377.36C1118.87 1395 1107.86 1403.81 1085.89 1403.81H1058.92V1688.68C1058.92 1698.77 1055.91 1706.65 1049.94 1712.37C1043.96 1718.08 1035.96 1720.96 1025.94 1720.96C1015.92 1720.96 1007.96 1718.08 1001.94 1712.37C995.962 1706.65 992.951 1698.77 992.951 1688.68V1403.81H965.987C944.011 1403.81 933 1395 933 1377.36C933 1359.72 943.966 1350.92 965.987 1350.92H992.951V1270.92ZM1232.48 1559.59C1232.48 1574.77 1235.09 1588.95 1240.35 1602.13C1245.61 1615.31 1253.34 1626.82 1263.58 1636.62C1273.83 1646.47 1286.19 1654.14 1300.66 1659.73C1315.13 1665.32 1331.62 1668.11 1350.14 1668.11C1372.12 1668.11 1390.36 1665.44 1404.83 1660.11C1419.3 1654.77 1431.44 1648.97 1441.19 1642.71C1450.94 1636.46 1459.17 1630.78 1465.91 1625.65C1472.65 1620.57 1479.03 1618.02 1485.01 1618.02C1490.98 1618.02 1496.51 1620.36 1501.5 1624.99C1506.49 1629.62 1509 1636.37 1509 1645.17C1509 1652.6 1504.38 1660.73 1495.16 1669.53C1485.91 1678.33 1473.68 1686.59 1458.45 1694.22C1443.21 1701.86 1426.09 1708.24 1407.12 1713.37C1388.11 1718.46 1368.92 1721 1349.42 1721C1317.42 1721 1289.96 1715.91 1267 1705.69C1244.03 1695.52 1225.02 1681.79 1210.06 1664.57C1195.05 1647.34 1184.08 1627.61 1177.07 1605.38C1170.06 1583.15 1166.6 1560.05 1166.6 1536.02C1166.6 1512 1170.74 1488.06 1178.96 1465.62C1187.18 1443.18 1198.96 1423.45 1214.19 1406.43C1229.43 1389.46 1248.17 1375.94 1270.41 1365.98C1292.66 1356.01 1317.74 1351 1345.74 1351C1373.73 1351 1396.92 1356.13 1418.45 1366.35C1439.93 1376.57 1457.91 1390 1472.42 1406.6C1486.89 1423.2 1498.04 1442.05 1505.77 1463.2C1513.5 1484.34 1517.36 1505.82 1517.36 1527.64C1517.36 1538.11 1514.85 1546.03 1509.86 1551.5C1504.87 1556.96 1495.12 1559.67 1480.65 1559.67H1232.57L1232.48 1559.59ZM1451.3 1513.67C1451.3 1500.74 1449.19 1487.76 1444.92 1474.79C1440.65 1461.82 1434.31 1450.1 1425.82 1439.63C1417.33 1429.12 1406.32 1420.53 1392.83 1413.82C1379.35 1407.14 1363.62 1403.76 1345.6 1403.76C1325.11 1402.85 1307.85 1405.6 1293.87 1412.11C1279.9 1418.61 1268.39 1427.08 1259.4 1437.59C1250.42 1448.1 1243.76 1460.03 1239.54 1473.46C1235.34 1486.53 1232.96 1500.04 1232.44 1513.67H1451.26H1451.3ZM1583.16 1466.54C1590.39 1444.3 1601.54 1424.62 1616.5 1407.35C1631.51 1390.12 1650.21 1376.4 1672.72 1366.18C1695.19 1356.01 1721.66 1350.88 1752.18 1350.88C1786.15 1350.88 1812.49 1355.51 1831.23 1364.81C1849.97 1374.07 1859.32 1384.99 1859.32 1397.51C1859.32 1404.01 1856.8 1409.94 1851.81 1415.23C1846.82 1420.57 1840.31 1423.24 1832.31 1423.24C1825.79 1423.24 1820.17 1422.2 1815.46 1420.11C1810.69 1418.03 1805.48 1415.82 1799.73 1413.52C1793.97 1411.19 1787.5 1409.02 1780.22 1406.93C1772.99 1404.85 1763.59 1403.81 1752.13 1403.81C1731.64 1403.81 1714.16 1407.85 1699.69 1415.94C1685.17 1424.03 1673.44 1434.46 1664.45 1447.31C1655.47 1460.15 1648.82 1474.29 1644.59 1489.77C1640.32 1505.28 1638.21 1520.67 1638.21 1535.94C1638.21 1551.2 1640.32 1566.64 1644.59 1582.11C1648.82 1597.63 1655.47 1611.76 1664.45 1624.57C1673.44 1637.37 1685.17 1647.84 1699.69 1655.93C1714.16 1664.03 1731.64 1668.07 1752.13 1668.07C1763.64 1668.07 1773.26 1667.03 1780.99 1664.94C1788.72 1662.86 1795.46 1660.44 1801.21 1657.64C1806.4 1655.11 1811.64 1652.68 1816.94 1650.35C1821.7 1648.26 1826.56 1647.22 1831.54 1647.22C1839.05 1647.22 1845.16 1649.43 1849.93 1653.81C1854.69 1658.23 1857.03 1664.61 1857.03 1672.95C1857.03 1684.55 1848.17 1695.43 1830.42 1705.65C1812.67 1715.87 1786.6 1720.96 1752.09 1720.96C1721.62 1720.96 1695.15 1715.87 1672.63 1705.65C1650.16 1695.47 1631.42 1681.75 1616.41 1664.53C1601.4 1647.3 1590.3 1627.57 1583.07 1605.34C1575.83 1583.11 1572.19 1560 1572.19 1535.98C1572.19 1511.96 1575.83 1488.81 1583.07 1466.62L1583.16 1466.54ZM2159.07 1492.56C2159.07 1476.75 2156.33 1463.2 2150.85 1451.9C2145.32 1440.59 2138.22 1431.46 2129.5 1424.45C2120.83 1417.5 2110.76 1412.2 2099.89 1408.85C2088.87 1405.47 2077.91 1403.76 2066.9 1403.76C2055.89 1403.76 2044.92 1405.47 2033.91 1408.85C2022.9 1412.23 2013.06 1417.44 2004.3 1424.45C1995.53 1431.46 1988.43 1440.63 1982.95 1451.9C1977.42 1463.2 1974.73 1476.75 1974.73 1492.56V1689.09C1974.73 1699.02 1971.71 1706.82 1965.74 1712.49C1959.76 1718.16 1951.76 1720.96 1941.74 1720.96C1931.72 1720.96 1923.76 1718.08 1917.74 1712.32C1911.76 1706.57 1908.75 1698.64 1908.75 1688.51V1216.45C1908.75 1206.31 1911.76 1198.39 1917.74 1192.63C1923.72 1186.88 1931.72 1184 1941.74 1184C1951.76 1184 1959.72 1186.96 1965.74 1192.88C1971.71 1198.81 1974.73 1206.94 1974.73 1217.37V1398.26L1976.21 1399.63C1990.68 1382.03 2007.67 1369.52 2027.17 1362.1C2046.68 1354.67 2066.4 1350.96 2086.36 1350.96C2101.82 1350.96 2117.68 1353.34 2133.95 1358.09C2150.17 1362.85 2165.05 1370.69 2178.53 1381.57C2192.01 1392.46 2203.11 1406.64 2211.88 1424.08C2220.6 1441.51 2225 1462.95 2225 1488.35V1689.01C2225 1698.98 2221.99 1706.82 2216.01 1712.49C2210.03 1718.16 2202.04 1721 2192.01 1721C2181.99 1721 2174.04 1718.21 2168.02 1712.53C2162.04 1706.9 2159.03 1699.1 2159.03 1689.13V1492.6L2159.07 1492.56Z" fill="#1087BC"/>
</svg>
