<svg width="374" height="56" viewBox="0 0 374 56" fill="none" xmlns="http://www.w3.org/2000/svg">
<g clip-path="url(#clip0_403_3097)">
<path d="M21.7474 49.2333C33.7581 49.2333 43.4946 38.2121 43.4946 24.6167C43.4946 11.0212 33.7581 0 21.7474 0C9.73661 0 0 11.0212 0 24.6167C0 38.2121 9.73661 49.2333 21.7474 49.2333Z" fill="#FC8001"/>
<path d="M21.7903 1.37061C11.7555 1.37061 3.61328 10.5801 3.61328 21.946C3.61328 23.0519 3.69317 24.1439 3.84066 25.2012C6.19421 18.2524 12.6096 13.2581 20.1619 13.2581C26.4729 13.2581 31.9911 16.736 35.0084 21.932C35.0268 21.932 35.0453 21.932 35.0636 21.932C37.0178 21.932 38.6586 22.6345 39.8813 23.838C39.9305 23.2119 39.9613 22.5859 39.9613 21.946C39.9613 10.5801 31.8252 1.37061 21.7903 1.37061Z" fill="#FDCC01"/>
<path d="M39.8821 23.8376C38.6593 22.6341 37.0185 21.9316 35.0644 21.9316C35.0461 21.9316 35.0276 21.9316 35.0091 21.9316C29.6629 21.9664 24.0341 27.225 22.4241 33.7079C21.5637 37.1649 22.0184 40.2671 23.438 42.4235C22.8911 42.4792 22.3442 42.5139 21.7849 42.5139C12.7271 42.5139 5.21794 35.0085 3.84145 25.1938C3.22079 27.0233 2.88281 28.9917 2.88281 31.0437C2.88281 36.0797 4.91682 40.615 8.17985 43.8564C10.1954 45.6788 12.4998 47.1048 15.007 48.0299C17.127 48.8089 19.3945 49.2401 21.742 49.2401C28.2619 49.2401 34.1058 45.9849 38.0939 40.8445C39.4705 39.0708 40.6195 37.0744 41.5044 34.9042C41.6335 34.5147 41.7503 34.1182 41.8486 33.7148C42.881 29.5761 42.0268 25.9382 39.8821 23.8376Z" fill="#FD0024"/>
<path d="M157.957 22.6759V42.9522C157.957 43.1608 157.81 43.3278 157.625 43.3278H153.441C153.257 43.3278 153.109 43.1608 153.109 42.9522V24.4497C153.109 18.5999 150.27 15.1497 145.396 15.1497C140.757 15.1497 137.125 18.7946 137.125 24.5818V42.9522C137.125 43.1608 136.978 43.3278 136.794 43.3278H132.609C132.425 43.3278 132.277 43.1608 132.277 42.9522V24.4497C132.277 18.5999 129.439 15.1497 124.566 15.1497C120.043 15.1497 116.263 18.6624 116.263 24.5818V42.9522C116.263 43.1608 116.116 43.3278 115.932 43.3278H111.771C111.587 43.3278 111.439 43.1608 111.439 42.9522V11.0041C111.439 10.7954 111.587 10.6285 111.771 10.6285H115.901C116.085 10.6285 116.233 10.7954 116.233 11.0041V13.7308C116.233 14.0716 116.601 14.2316 116.804 13.9741C119.109 11.011 122.433 9.96069 125.426 9.96069C129.954 9.96069 133.574 12.1448 135.516 15.7897C135.645 16.0332 135.946 16.0332 136.081 15.7897C138.447 11.4075 142.595 9.96069 146.258 9.96069C153.201 9.96765 157.957 15.0523 157.957 22.6759Z" fill="black"/>
<path d="M191.905 26.5227C191.905 36.1216 185.729 43.0775 177.87 43.0775C173.801 43.0775 170.705 41.4429 168.535 38.8692C168.332 38.6258 167.976 38.7996 167.976 39.1336V55.4102C167.976 55.6189 167.829 55.7858 167.644 55.7858H163.483C163.3 55.7858 163.152 55.6189 163.152 55.4102V11.0042C163.152 10.7955 163.3 10.6286 163.483 10.6286H167.644C167.829 10.6286 167.976 10.7955 167.976 11.0042V13.9048C167.976 14.2387 168.332 14.4056 168.535 14.1691C170.705 11.5954 173.801 9.96777 177.87 9.96777C185.729 9.96777 191.905 16.9237 191.905 26.5227ZM167.675 26.5227C167.675 33.0473 171.633 37.9581 177.304 37.9581C183.123 37.9581 186.933 32.8385 186.933 26.5227C186.933 20.1998 183.031 15.1151 177.304 15.1151C171.633 15.1151 167.675 20.0329 167.675 26.5227Z" fill="black"/>
<path d="M246.491 17.3478C246.399 17.5356 246.19 17.5913 246.03 17.48C244.175 16.1653 240.782 14.7533 237.279 14.7533C233.439 14.7533 230.957 16.5897 230.957 19.4693C230.957 22.0081 232.997 23.1837 236.395 23.6498L239.645 24.1159C245.612 25.0201 249.127 27.8649 249.127 33.1096C249.127 39.1613 244.34 43.0774 236.69 43.0774C233.31 43.0774 228.774 42.1801 225.124 39.203C224.984 39.0847 224.947 38.8621 225.038 38.6952L226.931 35.259C227.036 35.0712 227.251 35.0295 227.405 35.1617C229.469 36.8937 232.235 38.2987 236.727 38.2987C241.335 38.2987 244.175 36.5946 244.175 33.4505C244.175 31.1064 242.343 29.6388 238.533 29.1031L235.282 28.6649C228.99 27.7955 225.948 24.5818 225.948 19.7685C225.948 13.6821 230.409 10.0024 237.236 10.0024C241.532 10.0024 245.465 11.2614 248.181 13.2578C248.328 13.3621 248.371 13.5847 248.285 13.7586L246.491 17.3478Z" fill="black"/>
<path d="M271.126 17.3478C271.034 17.5356 270.826 17.5913 270.666 17.48C268.809 16.1653 265.417 14.7533 261.915 14.7533C258.074 14.7533 255.591 16.5897 255.591 19.4693C255.591 22.0081 257.631 23.1837 261.03 23.6498L264.281 24.1159C270.247 25.0201 273.762 27.8649 273.762 33.1096C273.762 39.1613 268.975 43.0774 261.324 43.0774C257.945 43.0774 253.41 42.1801 249.76 39.203C249.618 39.0847 249.581 38.8621 249.674 38.6952L251.566 35.259C251.67 35.0712 251.886 35.0295 252.039 35.1617C254.104 36.8937 256.869 38.2987 261.361 38.2987C265.971 38.2987 268.809 36.5946 268.809 33.4505C268.809 31.1064 266.979 29.6388 263.168 29.1031L259.918 28.6649C253.625 27.7955 250.583 24.5818 250.583 19.7685C250.583 13.6821 255.045 10.0024 261.872 10.0024C266.167 10.0024 270.1 11.2614 272.816 13.2578C272.964 13.3621 273.007 13.5847 272.921 13.7586L271.126 17.3478Z" fill="black"/>
<path d="M72.7699 34.7026C72.647 34.5635 72.4441 34.5635 72.3152 34.7026C68.1672 39.1404 62.3049 39.0083 58.415 34.6053C54.4269 30.091 54.4023 23.302 58.5626 18.593C62.6428 13.9744 68.4684 13.9325 72.4564 18.1965C72.5855 18.3355 72.7883 18.3355 72.9112 18.1965L75.6642 15.0803C75.7932 14.9341 75.7932 14.6838 75.658 14.5376C69.6482 7.99923 60.8853 8.06183 55.0722 14.6421C49.179 21.3127 49.2036 31.4125 55.2196 38.2223C61.1496 44.9347 69.9246 45.0738 75.8179 38.6952C75.9529 38.5492 75.9529 38.3057 75.824 38.1527L72.7699 34.7026Z" fill="black"/>
<path d="M83.0248 26.5086C83.2029 26.5086 83.3443 26.3487 83.3505 26.1469C83.5103 19.6919 87.7381 15.0872 93.244 15.0872C98.8851 15.0872 103.144 19.8728 103.144 26.5226C103.144 33.054 99.0511 37.7422 93.5636 37.9231C93.3853 37.9301 93.244 38.09 93.244 38.2918V42.6949C93.244 42.9035 93.3976 43.0774 93.5819 43.0774C101.921 42.8895 108.072 35.8294 108.072 26.5294C108.072 17.0973 101.749 9.97461 93.2378 9.97461C84.8499 9.97461 78.5573 16.8956 78.3791 26.1261C78.3729 26.3347 78.5266 26.5086 78.717 26.5086H83.0248Z" fill="black"/>
<path d="M221.823 10.6355H217.664C217.479 10.6355 217.331 10.8024 217.331 11.0111V13.849C214.775 11.2615 211.371 9.71729 207.524 9.71729C199.191 9.71729 192.898 16.8748 192.898 26.5087C192.898 36.0034 199.013 43.1261 207.167 43.3278C207.352 43.3348 207.505 43.1608 207.505 42.9452V38.0693C207.505 37.8675 207.364 37.7075 207.185 37.7005C201.483 37.5197 197.415 32.7341 197.415 26.5017C197.415 20.1162 201.643 15.2959 207.518 15.2959C212.532 15.2959 217.325 19.2607 217.325 23.789V42.9452C217.325 43.1539 217.473 43.3208 217.657 43.3208H221.817C222.002 43.3208 222.149 43.1539 222.149 42.9452V11.0041C222.149 10.8024 222.002 10.6355 221.823 10.6355Z" fill="black"/>
<path d="M96.3616 29.9379L97.7689 23.9977C98.07 22.7248 97.0438 21.5631 95.9192 21.9039L90.6713 23.4969C89.5468 23.8378 89.172 25.4306 89.9954 26.3626L93.836 30.71C94.6534 31.6352 96.0606 31.2108 96.3616 29.9379Z" fill="#FDCC01"/>
<path d="M359.775 31.5584C356.365 31.5584 354.791 29.5761 354.791 25.7156V1.93359H344.333V19.5945C341.954 13.8142 336.78 9.81455 330.77 9.81455C324.766 9.81455 319.586 13.8211 317.208 19.5945V10.1693H306.878V26.7868C306.878 29.7847 305.483 31.8159 303.154 31.8159C300.826 31.8159 299.43 29.7847 299.43 26.7868V10.1693H288.971V26.9398C288.971 37.2066 294.539 43.6615 303.161 43.6615C310.08 43.6615 315.02 39.3142 316.643 32.2748C318.664 38.9039 324.225 43.6615 330.776 43.6615C337.24 43.6615 342.741 39.029 344.83 32.5323C346.372 40.0655 351.411 43.4042 358.164 43.4042H360.813V31.5654H359.775V31.5584ZM330.77 31.8159C328.3 31.8159 326.278 29.5274 326.278 26.7311C326.278 23.9349 328.3 21.6464 330.77 21.6464C333.24 21.6464 335.262 23.9349 335.262 26.7311C335.262 29.5274 333.24 31.8159 330.77 31.8159Z" fill="black"/>
<path d="M280.441 42.3776C279.777 42.3776 279.206 42.1083 278.731 41.5698C278.255 41.0312 278.018 40.386 278.018 39.6342C278.018 38.8822 278.255 38.237 278.731 37.6985C279.206 37.1599 279.777 36.8906 280.441 36.8906C281.106 36.8906 281.675 37.1599 282.151 37.6985C282.626 38.237 282.865 38.8822 282.865 39.6342C282.865 40.1321 282.752 40.5892 282.528 41.0058C282.312 41.4224 282.021 41.7578 281.653 42.0118C281.294 42.2555 280.889 42.3776 280.441 42.3776Z" fill="black"/>
<path d="M367.358 11.1557C367.297 11.1644 367.235 11.1707 367.173 11.1746V10.8029C367.222 10.9227 367.282 11.0448 367.358 11.1557ZM369.817 8.27088C369.764 8.13632 369.703 8.00613 369.631 7.88172C369.713 7.78484 369.788 7.68105 369.853 7.57068C369.854 7.60299 369.854 7.63547 369.854 7.66812C369.854 7.87627 369.841 8.0774 369.817 8.27088ZM366.983 14.354C370.53 14.354 373.097 11.2796 373.097 7.63336C373.097 4.04927 370.53 0.982213 366.983 0.982213C363.486 0.982213 360.84 4.03657 360.84 7.63336C360.84 11.2915 363.479 14.354 366.983 14.354Z" fill="white" stroke="black" stroke-width="1.96429"/>
</g>
<defs>
<clipPath id="clip0_403_3097">
<rect width="374" height="55.7857" fill="white"/>
</clipPath>
</defs>
</svg>
