<svg width="704" height="215" viewBox="0 0 704 215" fill="none" xmlns="http://www.w3.org/2000/svg">
<g clip-path="url(#clip0_980_247)">
<path opacity="0.999" fill-rule="evenodd" clip-rule="evenodd" d="M657.258 93H658.782L660.305 93.5312L661.829 94.5938L663.353 96.1875L664.369 97.7812L664.877 99.375C665.639 103.917 662.761 107.46 659.29 110C658.612 110 657.936 110 657.258 110C656.914 104.545 656.914 98.8789 657.258 93Z" fill="#C22B2C"/>
<path opacity="0.999" fill-rule="evenodd" clip-rule="evenodd" d="M573.5 -0.5C575.5 -0.5 577.5 -0.5 579.5 -0.5C583.739 1.83812 585.739 5.50479 585.5 10.5C583.372 12.4458 581.039 14.2791 578.5 16C576.115 16.5564 573.782 16.3897 571.5 15.5C567.829 12.7507 566.663 9.08408 568 4.5C569.73 2.59809 571.563 0.93142 573.5 -0.5Z" fill="#C92E2F"/>
<path opacity="0.992" fill-rule="evenodd" clip-rule="evenodd" d="M585.5 10.5C616.996 31.4155 648.663 52.0822 680.5 72.5C679.529 74.4832 678.529 76.4832 677.5 78.5C646.781 58.0528 615.948 37.7194 585 17.5C584.333 18.5 584.333 19.5 585 20.5C591.437 35.0427 597.604 49.7094 603.5 64.5C601.167 64.5 598.833 64.5 596.5 64.5C590.571 48.6364 584.071 32.9698 577 17.5C572.296 35.3278 565.962 55.9945 561 73.5C561.237 72.209 561.904 68.709 561 68C560.194 66.7719 559.194 66.2719 558 65.5C561.871 49.0148 566.704 31.6814 571.5 15.5C573.782 16.3897 576.115 16.5564 578.5 16C581.039 14.2791 583.372 12.4458 585.5 10.5Z" fill="#42A452"/>
<path opacity="0.998" fill-rule="evenodd" clip-rule="evenodd" d="M417.499 38.5C416.355 41.9945 414.355 44.9945 411.499 47.5C402.153 47.668 398.653 43.3347 400.999 34.5C404.263 30.6719 408.43 29.5053 413.499 31C416.023 32.883 417.357 35.383 417.499 38.5Z" fill="#C82C2E"/>
<path opacity="0.988" fill-rule="evenodd" clip-rule="evenodd" d="M417.5 38.5C433.763 43.6985 450.096 48.6985 466.5 53.5C465.27 55.2972 464.604 57.2972 464.5 59.5C449.245 54.4676 433.911 49.9676 418.5 46C427.075 57.0623 435.408 68.229 443.5 79.5C440.703 77.205 438.036 74.705 435.5 72C433.088 70.2316 430.421 69.0649 427.5 68.5C422.167 61.5 416.833 54.5 411.5 47.5C414.356 44.9945 416.356 41.9945 417.5 38.5Z" fill="#42A352"/>
<path opacity="0.997" fill-rule="evenodd" clip-rule="evenodd" d="M397.5 49.5001C403.682 48.7193 408.182 51.0527 411 56.5001C411.667 71.8334 411.667 87.1668 411 102.5C407.305 109.422 401.805 111.255 394.5 108C392.383 106.269 390.883 104.102 390 101.5C389.333 86.8334 389.333 72.1668 390 57.5001C391.353 53.65 393.853 50.9833 397.5 49.5001Z" fill="black"/>
<path opacity="0.998" fill-rule="evenodd" clip-rule="evenodd" d="M481.5 60.4999C480.692 62.2201 479.692 63.8868 478.5 65.4999C475.789 65.1848 473.456 65.8515 471.5 67.4999C467.036 66.7023 464.703 64.0357 464.5 59.4999C464.604 57.2971 465.27 55.2971 466.5 53.4999C466.953 52.5415 467.619 51.7082 468.5 50.9999C476.971 48.8779 481.304 52.0446 481.5 60.4999Z" fill="#C72B2D"/>
<path opacity="0.999" fill-rule="evenodd" clip-rule="evenodd" d="M284.5 62.5001C298.711 62.1818 311.378 66.3485 322.5 75.0001C325.103 77.0936 327.103 79.5936 328.5 82.5001C327.781 84.7278 326.448 86.5611 324.5 88.0001C321.568 90.6146 318.401 92.7812 315 94.5001C311.981 93.4953 309.481 91.662 307.5 89.0001C292.204 79.9928 277.87 81.3262 264.5 93.0001C251.4 109.073 251.233 125.24 264 141.5C274.124 151.517 285.957 154.35 299.5 150C305.205 147.611 310.372 144.444 315 140.5C316.225 140.862 317.391 141.362 318.5 142C321.721 145.221 324.887 148.387 328 151.5C328.667 152.5 328.667 153.5 328 154.5C306.151 175.286 282.317 177.786 256.5 162C236.61 144.955 230.443 123.788 238 98.5001C246.968 77.9461 262.468 65.9461 284.5 62.5001Z" fill="black"/>
<path opacity="0.999" fill-rule="evenodd" clip-rule="evenodd" d="M11.5 64.5C18.4222 64.1878 25.2555 64.5212 32 65.5C34.2479 78.3237 36.4146 91.1569 38.5 104C35.3805 114.733 31.0471 124.9 25.5 134.5C24.914 134.291 24.414 133.957 24 133.5C19.1827 110.594 15.0161 87.5945 11.5 64.5Z" fill="black"/>
<path fill-rule="evenodd" clip-rule="evenodd" d="M102.501 64.5C108.843 64.3338 115.176 64.5005 121.501 65C122.098 66.0617 122.431 67.2284 122.501 68.5C116.652 102.245 110.485 135.911 104.001 169.5C96.6679 170.833 89.3345 170.833 82.0012 169.5C77.3345 155.5 72.6679 141.5 68.0012 127.5C62.8145 141.391 57.8145 155.391 53.0012 169.5C46.2488 170.645 39.4155 170.811 32.5012 170C31.4476 168.612 31.2809 167.112 32.0012 165.5C39.1981 146.243 46.1981 126.91 53.0012 107.5C53.9384 104.344 55.4384 101.511 57.5012 99C63.8345 98.3333 70.1679 98.3333 76.5012 99C77.4174 99.3742 78.2508 99.8742 79.0012 100.5C83.198 111.423 87.198 122.423 91.0012 133.5C95.0321 110.515 98.8654 87.5152 102.501 64.5Z" fill="black"/>
<path fill-rule="evenodd" clip-rule="evenodd" d="M218.499 83.5C193.788 83.8142 169.121 83.4808 144.499 82.5C143.384 77.2501 143.218 71.9167 143.999 66.5C144.499 66 144.999 65.5 145.499 65C169.832 64.3333 194.166 64.3333 218.499 65C218.999 65.5 219.499 66 219.999 66.5C220.666 71.5 220.666 76.5 219.999 81.5C219.721 82.4158 219.221 83.0825 218.499 83.5Z" fill="black"/>
<path fill-rule="evenodd" clip-rule="evenodd" d="M596 65.0624C598.333 65.0624 600.667 65.0624 603 65.0624C612.339 64.8959 621.673 65.0626 631 65.5624C646.14 69.2006 657.307 79.6382 659.5 95C660 100 661 104.5 657 110.062L655 113.5L653 117.062C645.383 127.028 634.883 132.695 622.5 134.062L615 133.562L607 132.562C606 135.062 606.5 132.562 606 140.062C605.332 150.098 605.833 140.062 606 170C600.698 171.163 594.364 171.391 589 170.562C588.248 169.891 587.914 169.058 588 168.062C588 152.729 588 137.395 588 122.062C588 119.729 588 117.395 588 115.062C587.914 114.066 588 112.062 589 112.062C598.297 112.062 604.161 111.896 613.5 112.062L623 112.062C635.698 110.003 639.531 103.003 634.5 91.0624C632.957 89.1841 631.124 87.6841 629 86.5624C623.677 86.063 618.344 85.8964 613 86.0624C609.5 86.0624 609 85.9692 606 86.0624C600.656 86.2284 595.323 86.0618 590 85.5624C588.833 85.0624 588 84.2291 587.5 83.0624C586.833 78.0624 586.833 73.0624 587.5 68.0624C587.874 67.1462 588.374 66.3128 589 65.5624C591.31 65.0658 593.643 64.8991 596 65.0624Z" fill="black"/>
<path opacity="0.991" fill-rule="evenodd" clip-rule="evenodd" d="M481.5 60.5C498.024 68.3319 514.357 76.6653 530.5 85.5C529.855 87.8263 528.522 89.493 526.5 90.5C517.665 85.5819 508.665 80.9152 499.5 76.5C495.936 73.5778 492.936 70.0778 490.5 66C486.514 65.5012 482.514 65.3345 478.5 65.5C479.692 63.8869 480.692 62.2202 481.5 60.5Z" fill="#42A252"/>
<path fill-rule="evenodd" clip-rule="evenodd" d="M427.5 68.5L430.5 69L433.5 70.5L435.5 72L439.5 75.5L443.5 79.5L445.5 82L449 87.5L451.5 93.5L454 99.5L455.5 105.5C458.555 137.573 444.889 158.74 414.5 169C384.607 173.97 362.774 163.137 349 136.5C340.573 111.616 345.74 90.116 364.5 72C370.838 66.9541 376.671 67.4541 382 73.5C382.837 77.2946 382.504 80.9613 381 84.5C362.04 100.648 359.707 118.982 374 139.5C391.702 155.379 409.369 155.379 427 139.5C441.745 118.154 439.079 99.1545 419 82.5C417.026 74.7656 419.859 70.0989 427.5 68.5Z" fill="black"/>
<path opacity="0.999" fill-rule="evenodd" clip-rule="evenodd" d="M686.5 88.4999C684.738 88.6426 683.071 88.3093 681.5 87.4999C680.113 85.7899 678.779 84.1232 677.5 82.4999C677.5 81.1666 677.5 79.8332 677.5 78.4999C678.529 76.4831 679.529 74.4831 680.5 72.4999C690.803 69.9692 695.303 73.9692 694 84.4999C692.285 87.3973 689.785 88.7306 686.5 88.4999Z" fill="#C82B2D"/>
<path opacity="0.129" fill-rule="evenodd" clip-rule="evenodd" d="M144.5 82.5C169.122 83.4808 193.789 83.8142 218.5 83.5C194.337 84.6632 170.003 84.8299 145.5 84C144.944 83.6174 144.611 83.1174 144.5 82.5Z" fill="black"/>
<path opacity="0.992" fill-rule="evenodd" clip-rule="evenodd" d="M613.5 85.5C617.294 93.9706 620.627 102.637 623.5 111.5C621 111.5 621 111.5 617.5 111.5C613.818 102.808 610.152 94.1408 606.5 85.5C609 85.5 610.5 85.5 613.5 85.5Z" fill="#40A352"/>
<path opacity="0.992" fill-rule="evenodd" clip-rule="evenodd" d="M677.501 82.5C678.78 84.1233 680.114 85.79 681.501 87.5C683.072 88.3094 684.739 88.6427 686.501 88.5C679.965 108.773 673.632 129.107 667.501 149.5C664.237 148.676 660.903 148.342 657.501 148.5C656.384 137.8 656.05 126.633 654.5 116C654.5 113.5 654.999 114 656.5 111C657.502 109.5 656.501 109.5 659.501 109.5C660.338 120.196 661.505 130.862 663.001 141.5C668.969 123.936 674.303 106.27 679.001 88.5C673.955 92.3859 668.788 96.0526 663.501 99.5C662.111 98.1007 661.111 96.4341 660.501 94.5C666.168 90.5 671.834 86.5 677.501 82.5Z" fill="#45A554"/>
<path opacity="0.994" fill-rule="evenodd" clip-rule="evenodd" d="M446.5 83.5C455.073 93.6504 463.407 103.984 471.5 114.5C471.5 117.833 471.5 121.167 471.5 124.5C466.167 118.167 460.833 111.833 455.5 105.5C453.588 97.6812 450.588 90.3479 446.5 83.5Z" fill="#3FA351"/>
<path fill-rule="evenodd" clip-rule="evenodd" d="M145.5 94.5001C150.844 94.3341 156.177 94.5007 161.5 95.0001C162 95.5001 162.5 96.0001 163 96.5001C162.92 101.635 163.753 106.469 165.5 111C179.408 111.176 193.242 111.676 207 112.5C207.667 117.833 207.667 123.167 207 128.5C206.5 129 206 129.5 205.5 130C191.504 130.5 177.504 130.667 163.5 130.5C163.188 137.422 163.521 144.256 164.5 151C183.073 151.173 201.573 151.673 220 152.5C220.788 158.22 220.621 163.886 219.5 169.5C194.84 170.666 170.173 170.833 145.5 170C145 169.5 144.5 169 144 168.5C143.333 144.5 143.333 120.5 144 96.5001C144.717 95.9559 145.217 95.2892 145.5 94.5001Z" fill="black"/>
<path opacity="0.992" fill-rule="evenodd" clip-rule="evenodd" d="M561.053 101C570.329 105.203 579.146 109.282 588.5 113.5C588.5 115.956 588.5 118.544 588.5 121C588.128 121 588.254 121 587.882 121C578.909 116.776 569.966 112.565 561.053 108.368C559.649 105.799 559.649 103.343 561.053 101Z" fill="#44A554"/>
<path opacity="0.22" fill-rule="evenodd" clip-rule="evenodd" d="M493.499 107.5C492.832 114.5 492.166 121.5 491.499 128.5C491.168 121.137 491.502 113.803 492.499 106.5C493.106 106.624 493.439 106.957 493.499 107.5Z" fill="#5F5F5F"/>
<path opacity="0.533" fill-rule="evenodd" clip-rule="evenodd" d="M558 64C559.004 64.7163 562.152 67.7266 561.889 69.0309C561.546 79.89 561.916 90.6667 563 101.361C561.604 103.61 561.604 105.967 563 108.433C561.892 126.105 561.522 143.954 561.889 161.979C562.08 162.982 561.709 163.654 560.778 164C560.778 131.334 558 96.6666 558 64Z" fill="#484B49"/>
<path opacity="0.991" fill-rule="evenodd" clip-rule="evenodd" d="M475.5 129.5C478.279 129.279 480.946 129.612 483.5 130.5C496.815 148.476 510.482 166.143 524.5 183.5C523.055 185.063 521.389 186.396 519.5 187.5C504.425 168.432 489.759 149.099 475.5 129.5Z" fill="#41A452"/>
<path opacity="0.991" fill-rule="evenodd" clip-rule="evenodd" d="M622.502 133.5C632.002 139 645.128 144.519 655.501 149.999C654.083 152.652 653.423 155.485 653.517 158.5C652.861 157.35 652.2 156.091 651.533 154.722C639.755 148.642 627.853 142.817 615.826 137.248C614.002 136.5 614.573 136.557 612.851 137.248C612.851 137.248 606 140 606.002 140.5C606.002 137 605.501 134 607.001 132.5C615.001 133.5 616 133.5 622.502 133.5Z" fill="#43A352"/>
<path opacity="0.998" fill-rule="evenodd" clip-rule="evenodd" d="M657.501 148.5C660.903 148.342 664.237 148.676 667.501 149.5C672.366 157.072 670.532 162.405 662.001 165.5C657.749 164.737 654.915 162.403 653.501 158.5C653.406 155.308 654.072 152.308 655.501 149.5C656.168 149.167 656.834 148.833 657.501 148.5Z" fill="#C92E2F"/>
<path opacity="0.991" fill-rule="evenodd" clip-rule="evenodd" d="M585.5 119C585.827 119 587.981 121 587.981 121C587.869 137 587.981 153 587.981 153C587.981 153 587.981 153 585.5 154.5C579.556 158.094 586.696 153 536.351 189C534.205 185.744 531.255 183.744 527.5 183C531.674 164.349 536.591 146.016 542.252 128C542.252 135.667 542.743 142.929 542.743 150.596C539.196 161.356 536.689 172.378 534.384 183.596C540.351 178.682 542.743 177 552.086 170C555.296 169.176 558.575 168.842 561.92 169C561.92 167.333 561.92 165.667 561.92 164C562.744 163.658 550.611 171.03 563.395 162.5C571.495 157.611 577.865 153.777 585.5 148C586.519 146.5 585.5 129 585.5 119ZM542.743 150.596C542.58 156.605 535.367 177.5 534.384 183.596C536.843 182 563.887 162.201 552.086 170C542.743 177 540.351 178.682 534.384 183.596C536.689 172.378 539.196 161.356 542.743 150.596Z" fill="#4CA659"/>
<path opacity="0.999" fill-rule="evenodd" clip-rule="evenodd" d="M525 182.5C525.667 182.5 527.5 182 527.5 182C532.979 181 534.318 185.244 536.5 188.5C536.718 197.79 531.906 201.79 523.021 199.5C518.989 196.108 517.989 191.941 520.021 187C521 185 522.479 183 525 182.5Z" fill="#C82C2E"/>
<path opacity="0.997" fill-rule="evenodd" clip-rule="evenodd" d="M559.5 66L561.584 68.2382C561.584 100.571 562.083 132.405 562.083 164.738C562.083 166.405 562.083 168.071 562.083 169.738C558.5 170.5 558.022 170.738 552.082 170.738C547.5 170.738 545.639 170.689 542.582 169.738C542.083 163.747 541.916 157.747 542.082 151.738C542.082 144.071 542.082 136.405 542.082 128.738C542.248 121.73 542.082 114.73 541.582 107.738C535.786 116.855 529.286 125.355 522.082 133.238C518.749 133.905 515.415 133.905 512.082 133.238C505.448 125.118 499.448 116.618 494.082 107.738C494.022 107.195 493.689 106.862 493.082 106.738C492.085 114.041 491.669 122.637 492 130H488H486C486 130 471.338 130.95 472.082 127.5C472.082 124.167 472.082 118.071 472.082 114.738C472.082 99.0715 472.082 83.4049 472.082 67.7382C474.038 66.0898 476.371 65.4231 479.082 65.7382C483.096 65.5727 487.096 65.7394 491.082 66.2382C493.518 70.316 506.683 91.116 509.383 94.7382C509.611 94.3394 508.945 94.6728 509.383 94.7382C509.383 94.7382 509.666 95.5713 515.584 104.738C516.719 105.487 518.217 105.821 519.082 104.738C522.584 98.7382 523.644 98.0231 525.883 93.1161C528.883 89.2382 538.885 71.7382 540.584 69.2382C544.132 62.3441 555.084 64.2382 555.084 64.2382L559.5 66Z" fill="black"/>
</g>
<defs>
<clipPath id="clip0_980_247">
<rect width="704" height="215" fill="white"/>
</clipPath>
</defs>
</svg>
