<svg version="1.1" id="Layer_1" xmlns="http://www.w3.org/2000/svg" xmlns:xlink="http://www.w3.org/1999/xlink" x="0px" y="0px"
	 width="100%" viewBox="0 0 200 200" enable-background="new 0 0 200 200" xml:space="preserve">
<path fill="#FFFFFF" opacity="1.000000" stroke="none" 
	d="
M135.000000,201.000000 
	C90.000000,201.000000 45.500004,201.000000 1.000006,201.000000 
	C1.000004,134.333344 1.000004,67.666679 1.000002,1.000015 
	C67.666656,1.000010 134.333313,1.000010 200.999969,1.000005 
	C200.999985,67.666649 200.999985,134.333298 201.000000,200.999969 
	C179.166672,201.000000 157.333328,201.000000 135.000000,201.000000 
M105.605560,60.849739 
	C105.434372,60.840061 105.263184,60.830387 104.810684,60.256233 
	C103.554695,59.163876 102.298706,58.071514 101.054688,56.486530 
	C101.054688,56.486530 100.992538,55.997696 100.877853,55.519966 
	C100.707962,55.230350 100.477562,55.001705 100.071548,54.132072 
	C98.211723,50.102119 95.764992,46.733688 90.525818,45.808228 
	C90.268486,45.602947 90.083649,45.345596 89.993553,44.295189 
	C89.005287,43.527149 88.017014,42.759109 86.441765,41.760014 
	C85.624222,40.837925 84.806686,39.915833 83.996605,38.254387 
	C82.212105,33.709549 81.347260,33.321693 79.004089,35.999683 
	C79.004089,35.999683 79.034698,36.033058 78.518745,36.344936 
	C78.615517,37.226913 78.712288,38.108887 78.904167,39.823143 
	C79.004875,41.210930 79.105583,42.598721 79.042267,44.817368 
	C79.098122,46.223293 79.153976,47.629219 78.988686,49.943954 
	C79.022537,60.617523 79.056381,71.291092 78.937363,82.638763 
	C78.988068,83.093941 79.038765,83.549118 78.937164,84.893799 
	C78.986687,87.596863 79.036201,90.299919 78.929581,93.880211 
	C78.974060,96.253761 79.018539,98.627312 78.898140,101.857887 
	C78.858215,103.886864 78.818283,105.915840 78.136406,108.060982 
	C77.428696,109.051414 76.720993,110.041847 75.179230,111.195511 
	C73.789848,111.350510 72.400459,111.505501 70.243034,111.346077 
	C69.157150,111.447922 68.071259,111.549759 66.122063,111.330109 
	C62.751308,111.439629 59.380558,111.549156 55.285637,111.358154 
	C54.522804,111.458237 53.759975,111.558319 52.218533,111.333084 
	C50.811935,111.242798 49.405342,111.152512 47.427254,110.451363 
	C39.361702,109.764366 31.338179,109.849884 22.553827,110.362816 
	C25.325480,116.148964 27.177858,120.601173 33.541012,121.320549 
	C36.024036,123.893234 38.507057,126.465912 40.984524,129.771225 
	C42.204853,133.776810 44.209309,136.915482 49.563644,137.313538 
	C53.049168,140.869568 56.534691,144.425583 59.989090,148.729263 
	C61.669331,150.141541 63.349567,151.553802 65.000610,153.000000 
	C65.000610,153.000000 65.032051,152.966522 65.072418,153.626282 
	C65.728310,154.072952 66.384209,154.519638 67.619080,155.285461 
	C70.093132,157.842041 72.567192,160.398636 75.009422,163.733017 
	C76.828491,167.840332 78.235535,168.134857 80.996086,164.996811 
	C80.996086,164.996811 80.984856,164.968628 81.727570,164.997925 
	C85.066757,163.142151 88.404228,161.284866 88.999001,156.998779 
	C88.999001,156.998779 88.917946,156.927734 89.627190,156.930908 
	C92.072884,154.277191 94.518585,151.623474 96.999390,148.999390 
	C96.999390,148.999390 96.969452,148.964325 97.725670,148.999725 
	C98.805336,147.652298 99.885002,146.304855 101.221405,144.440430 
	C101.802475,143.949860 102.383553,143.459290 103.624359,142.937653 
	C104.073875,142.282455 104.523392,141.627243 105.226204,140.451675 
	C105.802002,139.952744 106.377808,139.453812 107.671112,138.941544 
	C109.445221,136.961441 111.219330,134.981339 112.999367,132.999390 
	C112.999367,132.999390 113.001122,132.993439 113.748848,133.011734 
	C114.834846,131.681747 115.920845,130.351761 116.998474,128.998459 
	C116.998474,128.998459 117.021843,129.006790 117.759102,129.012405 
	C118.500183,128.003845 119.241264,126.995285 120.208565,125.541885 
	C120.430550,125.279312 120.706879,125.100899 121.762062,125.019783 
	C124.184341,122.362419 126.606621,119.705055 129.000412,117.000305 
	C129.000412,117.000305 129.047882,117.028656 129.788528,117.025055 
	C130.865509,115.691727 131.942505,114.358398 133.000000,112.999695 
	C133.000000,112.999695 133.025345,113.019371 133.958282,113.031189 
	C148.815186,112.638367 163.723740,113.550079 178.555267,112.516159 
	C178.807266,111.742035 179.059265,110.967911 179.311264,110.193787 
	C177.430649,108.922211 175.550034,107.650642 173.800613,106.197716 
	C173.800613,106.197716 173.622894,106.333801 173.791733,105.580986 
	C173.576202,102.705688 171.829987,101.752464 169.051788,101.930534 
	C169.051788,101.930534 169.062332,101.789635 168.916885,101.382263 
	C168.746704,101.124931 168.508865,100.974586 168.074600,100.946815 
	C168.074600,100.946815 168.084991,100.817497 168.065781,100.106186 
	C166.061111,95.659958 163.490479,91.824387 157.674423,90.755333 
	C157.459671,90.472488 157.244934,90.189644 156.840286,89.127365 
	C155.310272,88.761818 153.787979,88.124969 152.248795,88.081055 
	C147.427444,87.943512 142.598724,88.082733 137.775131,87.993103 
	C136.501602,87.969437 134.784119,87.945259 134.038773,87.176476 
	C128.190628,81.144356 122.612823,74.849312 116.735077,68.847450 
	C115.653503,67.743042 113.589760,67.600494 111.446213,66.757385 
	C110.676865,66.147430 109.907509,65.537476 108.936867,64.336555 
	C108.303047,63.524460 107.669235,62.712368 106.855316,61.474964 
	C106.671402,61.208725 106.422157,61.037674 105.605560,60.849739 
z"/>
<path fill="#A7FD37" opacity="1.000000" stroke="none" 
	d="
M60.020218,147.981613 
	C56.534691,144.425583 53.049168,140.869568 49.171539,136.838379 
	C46.182983,133.921661 43.586533,131.480133 40.990082,129.038589 
	C38.507057,126.465912 36.024036,123.893234 33.150700,120.847137 
	C30.503912,117.909927 28.247437,115.446121 25.011246,111.912582 
	C33.233006,111.912582 39.923523,111.912582 46.833366,112.168304 
	C48.009941,113.309425 48.967190,114.194824 49.964516,115.060135 
	C50.004593,115.040047 49.915695,115.049469 50.007942,115.292389 
	C50.388908,115.712753 50.677628,115.890198 50.980774,116.035942 
	C50.995197,116.004242 50.932598,116.034790 51.022026,116.278290 
	C51.396893,116.701965 51.682331,116.882133 51.982033,117.032234 
	C51.996296,117.002167 51.937439,117.033241 52.024506,117.277344 
	C52.396286,117.702080 52.681004,117.882706 52.981403,118.033218 
	C52.997086,118.003120 52.937038,118.034782 53.023640,118.279648 
	C53.396656,118.703049 53.683071,118.881592 53.983356,119.031036 
	C53.997223,119.001930 53.939960,119.031570 54.034695,119.273994 
	C54.410801,119.708374 54.692169,119.900330 55.061607,120.306259 
	C55.332439,120.789406 55.582527,120.959785 56.004410,121.274048 
	C56.396629,121.708214 56.684387,121.899658 57.064880,122.304199 
	C57.347157,122.781822 57.600471,122.950676 58.015808,123.264862 
	C58.400547,123.687332 58.687031,123.868805 58.986336,124.025238 
	C58.999157,124.000198 58.949783,124.027199 59.035416,124.270653 
	C59.404823,124.693306 59.688599,124.872498 59.985657,125.026024 
	C59.998932,125.000351 59.948338,125.028297 60.034985,125.271591 
	C60.405540,125.694473 60.689445,125.874054 60.981651,126.024689 
	C60.989952,125.995728 60.948631,126.039902 61.062119,126.330795 
	C62.099133,127.436714 63.022659,128.251740 63.975159,129.042053 
	C64.004128,129.017349 63.930832,129.037613 64.028519,129.277954 
	C64.404938,129.713318 64.683662,129.908325 65.049576,130.317169 
	C65.319801,130.799026 65.569550,130.969025 65.995239,131.278168 
	C66.395508,131.692505 66.686562,131.869675 66.988792,132.023392 
	C66.999969,131.999924 66.953461,132.023239 67.038033,132.267517 
	C67.405838,132.693253 67.689072,132.874680 67.985283,133.028625 
	C67.998260,133.001114 67.943779,133.028122 68.028687,133.273224 
	C68.395058,133.704346 68.676506,133.890350 68.975296,134.041779 
	C68.992630,134.007187 68.923599,134.042130 69.008919,134.289307 
	C69.382759,134.715591 69.671280,134.894669 69.976517,135.039612 
	C69.993217,135.005478 69.926613,135.042114 70.020920,135.282242 
	C70.400124,135.700409 70.685020,135.878448 70.978394,136.025772 
	C70.986862,135.995056 70.946144,136.044617 71.070305,136.346283 
	C72.785751,138.110962 74.377037,139.573975 75.983879,141.018204 
	C75.999435,140.999435 75.962448,141.031921 76.058990,141.306885 
	C76.730667,142.093933 77.305794,142.606018 78.090866,143.363800 
	C81.263596,140.802078 84.226379,137.994675 87.496521,135.134033 
	C88.549461,134.415817 89.295029,133.750824 90.335510,132.928345 
	C93.423119,129.852936 96.215805,126.935013 99.308006,123.875763 
	C101.744072,121.496864 103.880623,119.259293 106.316963,116.876816 
	C110.080093,113.159805 113.543434,109.587685 117.295883,105.875450 
	C118.069054,104.837234 118.553123,103.939133 119.020203,103.020157 
	C119.003227,102.999283 119.044014,103.036705 119.382690,103.001335 
	C121.819145,100.987656 123.916916,99.009346 126.313591,96.882782 
	C128.418518,94.502342 130.224533,92.270149 132.246552,89.919014 
	C132.725464,89.587425 132.914536,89.322144 133.424866,89.124222 
	C140.900879,89.564133 147.981842,89.884064 154.918930,90.498116 
	C148.226440,97.523743 141.677826,104.255249 134.872147,111.153809 
	C134.085175,111.887032 133.555267,112.453209 133.025360,113.019379 
	C133.025345,113.019371 133.000000,112.999695 132.699371,113.102234 
	C131.281784,114.479408 130.164825,115.754028 129.047882,117.028656 
	C129.047882,117.028656 129.000412,117.000305 128.694031,117.118103 
	C125.937599,119.826149 123.487572,122.416397 121.037537,125.006638 
	C120.706879,125.100899 120.430550,125.279312 119.795609,125.856033 
	C118.595718,127.115715 117.808784,128.061249 117.021843,129.006790 
	C117.021843,129.006790 116.998474,128.998459 116.693329,129.100235 
	C115.259163,130.465820 114.130142,131.729630 113.001122,132.993439 
	C113.001122,132.993439 112.999367,132.999390 112.678207,133.104080 
	C110.555908,135.124146 108.754761,137.039520 106.953613,138.954880 
	C106.377808,139.453812 105.802002,139.952744 104.787659,140.755341 
	C103.887627,141.695572 103.426132,142.332153 102.964630,142.968719 
	C102.383553,143.459290 101.802475,143.949860 100.786316,144.798798 
	C99.223961,146.426208 98.096703,147.695267 96.969452,148.964325 
	C96.969452,148.964325 96.999390,148.999390 96.662949,149.088623 
	C93.856995,151.761154 91.387466,154.344452 88.917946,156.927734 
	C88.917946,156.927734 88.999001,156.998779 88.634972,157.021606 
	C85.842247,159.685822 83.413551,162.327225 80.984856,164.968628 
	C80.984856,164.968628 80.996086,164.996811 80.612701,165.008179 
	C78.499954,164.331451 76.770599,163.643326 75.041245,162.955215 
	C72.567192,160.398636 70.093132,157.842041 67.283127,154.815552 
	C66.308792,153.885925 65.670425,153.426224 65.032051,152.966522 
	C65.032051,152.966522 65.000610,153.000000 64.909439,152.673431 
	C63.218914,150.891769 61.619568,149.436691 60.020218,147.981613 
z"/>
<path fill="#6FF33B" opacity="1.000000" stroke="none" 
	d="
M117.006775,106.015564 
	C113.543434,109.587685 110.080093,113.159805 106.309845,116.484818 
	C106.144081,113.580582 105.004860,112.305580 102.226120,112.397278 
	C94.513908,112.651787 86.798325,112.803749 79.019402,112.604301 
	C78.933708,111.948402 78.912682,111.684425 78.924934,111.072403 
	C78.898262,109.797836 78.838303,108.871330 78.778351,107.944817 
	C78.818283,105.915840 78.858215,103.886864 79.399208,101.418533 
	C81.351479,100.658989 82.801353,100.069748 84.254089,100.062614 
	C93.145912,100.018883 102.038376,100.109428 110.930641,100.149323 
	C112.682724,100.157181 114.541412,99.779236 116.150917,100.255371 
	C117.289871,100.592300 118.091698,102.068871 119.044014,103.036705 
	C119.044014,103.036705 119.003227,102.999283 118.669525,103.056221 
	C117.892807,104.080627 117.449791,105.048096 117.006775,106.015564 
z"/>
<path fill="#03DC40" opacity="1.000000" stroke="none" 
	d="
M55.899940,121.031342 
	C55.582527,120.959785 55.332439,120.789406 54.973885,120.057709 
	C54.512047,119.407326 54.226002,119.219452 53.939957,119.031570 
	C53.939960,119.031570 53.997223,119.001930 53.891304,118.789978 
	C53.502602,118.396950 53.219818,118.215866 52.937035,118.034790 
	C52.937038,118.034782 52.997086,118.003120 52.892376,117.790283 
	C52.504257,117.396042 52.220848,117.214645 51.937439,117.033241 
	C51.937439,117.033241 51.996296,117.002167 51.890701,116.789963 
	C51.500938,116.396767 51.216770,116.215775 50.932598,116.034790 
	C50.932598,116.034790 50.995197,116.004242 50.888344,115.792374 
	C50.492897,115.403488 50.204296,115.226479 49.915695,115.049469 
	C49.915695,115.049469 50.004593,115.040047 50.025597,114.742386 
	C51.030117,113.515953 52.013630,112.587181 52.997147,111.658401 
	C53.759975,111.558319 54.522804,111.458237 55.807781,111.831596 
	C59.881741,112.087227 63.433559,111.869415 66.985374,111.651596 
	C68.071259,111.549759 69.157150,111.447922 70.770645,111.812912 
	C73.821823,113.199455 76.345390,114.119171 78.903442,115.461082 
	C78.979408,117.580872 79.020889,119.278465 79.032440,121.323425 
	C79.284813,122.514458 79.567123,123.358124 79.837883,124.586136 
	C79.827797,125.995651 79.829262,127.020813 79.714600,128.331024 
	C79.416870,129.411163 79.235291,130.206223 79.040550,131.250336 
	C79.027397,131.499359 79.071983,131.996109 79.058884,132.326706 
	C79.058334,133.098145 79.070892,133.539001 79.051331,134.419159 
	C79.009552,136.909607 78.999901,138.960770 78.612022,141.008575 
	C77.476677,141.014130 76.719566,141.023041 75.962448,141.031921 
	C75.962448,141.031921 75.999435,140.999435 75.994781,140.641022 
	C75.696762,137.218018 73.954239,135.878189 70.946144,136.044617 
	C70.946144,136.044617 70.986862,135.995056 70.885941,135.784103 
	C70.498878,135.396149 70.212746,135.219131 69.926613,135.042114 
	C69.926613,135.042114 69.993217,135.005478 69.886337,134.795746 
	C69.494164,134.404724 69.208885,134.223419 68.923599,134.042130 
	C68.923599,134.042130 68.992630,134.007187 68.890327,133.796600 
	C68.506607,133.400040 68.225197,133.214081 67.943779,133.028122 
	C67.943779,133.028122 67.998260,133.001114 67.895096,132.788055 
	C67.512436,132.391068 67.232948,132.207153 66.953461,132.023239 
	C66.953461,132.023239 66.999969,131.999924 66.888885,131.779053 
	C66.480537,131.385788 66.183281,131.213409 65.886017,131.041016 
	C65.569550,130.969025 65.319801,130.799026 64.964462,130.066681 
	C64.505051,129.414108 64.217941,129.225861 63.930832,129.037613 
	C63.930832,129.037613 64.004128,129.017349 63.987442,128.662628 
	C62.963383,127.551918 61.956005,126.795906 60.948631,126.039902 
	C60.948631,126.039902 60.989952,125.995728 60.890884,125.784164 
	C60.510658,125.391159 60.229496,125.209732 59.948338,125.028297 
	C59.948338,125.028297 59.998932,125.000351 59.894836,124.786163 
	C59.510422,124.390388 59.230103,124.208794 58.949783,124.027199 
	C58.949783,124.027199 58.999157,124.000198 58.891556,123.781845 
	C58.495152,123.383621 58.206352,123.203743 57.917557,123.023857 
	C57.600471,122.950676 57.347157,122.781822 56.971222,122.052917 
	C56.489864,121.402809 56.194901,121.217079 55.899940,121.031342 
z"/>
<path fill="#0ADA42" opacity="1.000000" stroke="none" 
	d="
M135.129211,110.986755 
	C141.677826,104.255249 148.226440,97.523743 155.241119,90.412659 
	C156.148193,89.990990 156.589203,89.948891 157.030197,89.906799 
	C157.244934,90.189644 157.459671,90.472488 158.038147,91.156448 
	C161.629562,94.644203 164.857285,97.730850 168.084991,100.817497 
	C168.084991,100.817497 168.074600,100.946815 168.173706,101.169266 
	C168.448303,101.698303 168.711472,101.830940 169.062332,101.789635 
	C169.062332,101.789635 169.051788,101.930534 169.218216,102.229164 
	C170.797394,103.796463 172.210144,105.065132 173.622894,106.333801 
	C173.622894,106.333801 173.800613,106.197716 173.864426,106.598663 
	C174.896332,108.148651 175.864441,109.297699 177.287506,110.986755 
	C162.534286,110.986755 148.831757,110.986755 135.129211,110.986755 
z"/>
<path fill="#90FA34" opacity="1.000000" stroke="none" 
	d="
M109.138161,64.927521 
	C109.907509,65.537476 110.676865,66.147430 111.795174,67.178848 
	C112.761246,68.398552 113.378357,69.196800 114.030716,70.325211 
	C114.741348,71.086731 115.416740,71.518097 116.346588,72.127373 
	C117.234459,73.135834 117.867874,73.966385 118.087341,74.849350 
	C116.161758,75.693230 114.725082,76.735435 113.120262,77.215294 
	C110.908958,77.876495 107.309387,79.238083 106.505035,78.336479 
	C103.020226,74.430321 99.535149,74.864761 94.951691,75.783775 
	C90.155960,76.745354 85.016846,75.994400 80.017410,75.534897 
	C80.019066,71.716454 80.031128,68.355141 80.414612,64.990578 
	C86.862038,59.875439 93.398270,65.559273 98.667191,64.639839 
	C99.605980,61.612392 100.324348,59.295776 101.042717,56.979156 
	C102.298706,58.071514 103.554695,59.163876 104.920303,60.931454 
	C106.399330,62.713623 107.768745,63.820572 109.138161,64.927521 
z"/>
<path fill="#7EF735" opacity="1.000000" stroke="none" 
	d="
M132.030548,90.037949 
	C130.224533,92.270149 128.418518,94.502342 126.259094,96.495270 
	C124.447922,95.503700 123.012199,94.703796 121.525108,94.014763 
	C120.419235,93.502373 119.270889,93.046158 118.097916,92.722954 
	C116.607681,92.312317 115.054276,91.730545 113.562515,91.816910 
	C111.146576,91.956795 108.763794,92.904251 106.357994,92.942429 
	C97.269203,93.086685 88.176788,93.001991 79.085724,93.002983 
	C79.036201,90.299919 78.986687,87.596863 79.430115,84.458656 
	C87.516136,84.349007 95.114937,84.579788 102.700027,85.037628 
	C106.856018,85.288475 111.571503,87.387367 114.990280,86.027405 
	C119.663902,84.168274 123.888542,84.337181 128.610657,84.860260 
	C128.994843,85.090210 129.124924,85.295792 129.124054,85.973701 
	C130.117035,87.188843 131.154053,87.986710 132.205750,88.771103 
	C132.220413,88.757637 132.256699,88.741226 132.171600,89.060425 
	C132.067856,89.599075 132.049210,89.818512 132.030548,90.037949 
z"/>
<path fill="#87F836" opacity="1.000000" stroke="none" 
	d="
M128.443436,84.780838 
	C123.888542,84.337181 119.663902,84.168274 114.990280,86.027405 
	C111.571503,87.387367 106.856018,85.288475 102.700027,85.037628 
	C95.114937,84.579788 87.516136,84.349007 79.506256,84.013901 
	C79.038765,83.549118 78.988068,83.093941 79.281181,82.033508 
	C79.759277,79.616180 79.893555,77.804092 80.027832,75.992012 
	C85.016846,75.994400 90.155960,76.745354 94.951691,75.783775 
	C99.535149,74.864761 103.020226,74.430321 106.505035,78.336479 
	C107.309387,79.238083 110.908958,77.876495 113.120262,77.215294 
	C114.725082,76.735435 116.161758,75.693230 118.348106,75.015015 
	C122.163017,78.345787 125.303223,81.563316 128.443436,84.780838 
z"/>
<path fill="#77F535" opacity="1.000000" stroke="none" 
	d="
M79.007652,93.441597 
	C88.176788,93.001991 97.269203,93.086685 106.357994,92.942429 
	C108.763794,92.904251 111.146576,91.956795 113.562515,91.816910 
	C115.054276,91.730545 116.607681,92.312317 118.097916,92.722954 
	C119.270889,93.046158 120.419235,93.502373 121.525108,94.014763 
	C123.012199,94.703796 124.447922,95.503700 125.960190,96.643524 
	C123.916916,99.009346 121.819145,100.987656 119.382690,103.001335 
	C118.091698,102.068871 117.289871,100.592300 116.150917,100.255371 
	C114.541412,99.779236 112.682724,100.157181 110.930641,100.149323 
	C102.038376,100.109428 93.145912,100.018883 84.254089,100.062614 
	C82.801353,100.069748 81.351479,100.658989 79.481651,100.990021 
	C79.018539,98.627312 78.974060,96.253761 79.007652,93.441597 
z"/>
<path fill="#9AFC31" opacity="1.000000" stroke="none" 
	d="
M101.048706,56.732841 
	C100.324348,59.295776 99.605980,61.612392 98.667191,64.639839 
	C93.398270,65.559273 86.862038,59.875439 80.402161,64.525101 
	C79.748810,59.053631 79.479317,54.044388 79.209831,49.035145 
	C79.153976,47.629219 79.098122,46.223293 79.413483,44.259693 
	C81.684761,44.807259 83.584816,45.912498 86.445984,47.576809 
	C86.738815,47.292206 87.866470,46.196251 89.239609,45.102547 
	C89.485107,45.104797 89.971298,45.036179 89.971298,45.036179 
	C90.083649,45.345596 90.268486,45.602947 90.833588,46.244133 
	C93.423592,49.128826 95.705811,51.577614 98.024673,54.348656 
	C98.715729,55.107147 99.370140,55.543377 100.266144,56.005913 
	C100.507729,56.032215 100.992538,55.997696 100.992538,55.997696 
	C100.992538,55.997696 101.054688,56.486530 101.048706,56.732841 
z"/>
<path fill="#E1FDD3" opacity="1.000000" stroke="none" 
	d="
M128.610657,84.860260 
	C125.303223,81.563316 122.163017,78.345787 118.762039,74.962601 
	C117.867874,73.966385 117.234459,73.135834 116.228531,71.854416 
	C115.235832,70.934044 114.615654,70.464546 113.995468,69.995049 
	C113.378357,69.196800 112.761246,68.398552 112.061752,67.307144 
	C113.589760,67.600494 115.653503,67.743042 116.735077,68.847450 
	C122.612823,74.849312 128.190628,81.144356 134.038773,87.176476 
	C134.784119,87.945259 136.501602,87.969437 137.775131,87.993103 
	C142.598724,88.082733 147.427444,87.943512 152.248795,88.081055 
	C153.787979,88.124969 155.310272,88.761818 156.935242,89.517082 
	C156.589203,89.948891 156.148193,89.990990 155.385010,90.118546 
	C147.981842,89.884064 140.900879,89.564133 133.251129,89.000473 
	C132.682327,88.756744 132.256699,88.741226 132.256699,88.741226 
	C132.256699,88.741226 132.220413,88.757637 132.121490,88.464546 
	C131.071091,87.299774 130.119598,86.428101 129.168106,85.556427 
	C129.124924,85.295792 128.994843,85.090210 128.610657,84.860260 
z"/>
<path fill="#E1FDD3" opacity="1.000000" stroke="none" 
	d="
M134.872147,111.153809 
	C148.831757,110.986755 162.534286,110.986755 177.287506,110.986755 
	C175.864441,109.297699 174.896332,108.148651 173.798828,106.689339 
	C175.550034,107.650642 177.430649,108.922211 179.311264,110.193787 
	C179.059265,110.967911 178.807266,111.742035 178.555267,112.516159 
	C163.723740,113.550079 148.815186,112.638367 133.491821,113.025284 
	C133.555267,112.453209 134.085175,111.887032 134.872147,111.153809 
z"/>
<path fill="#E1FDD3" opacity="1.000000" stroke="none" 
	d="
M46.614044,111.912582 
	C39.923523,111.912582 33.233006,111.912582 25.011246,111.912582 
	C28.247437,115.446121 30.503912,117.909927 32.855236,120.694679 
	C27.177858,120.601173 25.325480,116.148964 22.553827,110.362816 
	C31.338179,109.849884 39.361702,109.764366 47.516319,110.944557 
	C47.274937,111.596031 46.944492,111.754311 46.614044,111.912582 
z"/>
<path fill="#A8F748" opacity="1.000000" stroke="none" 
	d="
M88.994118,45.100296 
	C87.866470,46.196251 86.738815,47.292206 86.445984,47.576809 
	C83.584816,45.912498 81.684761,44.807259 79.495499,43.844261 
	C79.105583,42.598721 79.004875,41.210930 78.956802,39.046997 
	C79.017853,37.524921 79.026276,36.778988 79.034698,36.033058 
	C79.034698,36.033058 79.004089,35.999683 79.348373,36.050278 
	C81.124825,37.065163 82.556984,38.029453 83.989143,38.993744 
	C84.806686,39.915833 85.624222,40.837925 86.822754,42.173782 
	C87.800529,43.425133 88.397324,44.262714 88.994118,45.100296 
z"/>
<path fill="#A8F748" opacity="1.000000" stroke="none" 
	d="
M79.099258,49.489548 
	C79.479317,54.044388 79.748810,59.053631 80.030746,64.528351 
	C80.031128,68.355141 80.019066,71.716454 80.017410,75.534897 
	C79.893555,77.804092 79.759277,79.616180 79.357613,81.696457 
	C79.056381,71.291092 79.022537,60.617523 79.099258,49.489548 
z"/>
<path fill="#E1FDD3" opacity="1.000000" stroke="none" 
	d="
M168.075378,100.461838 
	C164.857285,97.730850 161.629562,94.644203 158.291214,91.250961 
	C163.490479,91.824387 166.061111,95.659958 168.075378,100.461838 
z"/>
<path fill="#E1FDD3" opacity="1.000000" stroke="none" 
	d="
M97.988037,54.026398 
	C95.705811,51.577614 93.423592,49.128826 91.044479,46.358692 
	C95.764992,46.733688 98.211723,50.102119 100.072784,54.532642 
	C100.074020,54.933212 99.964203,55.029629 99.707352,54.919605 
	C98.963005,54.548519 98.475525,54.287457 97.988037,54.026398 
z"/>
<path fill="#E1FDD3" opacity="1.000000" stroke="none" 
	d="
M40.987305,129.404907 
	C43.586533,131.480133 46.182983,133.921661 48.877895,136.681549 
	C44.209309,136.915482 42.204853,133.776810 40.987305,129.404907 
z"/>
<path fill="#E1FDD3" opacity="1.000000" stroke="none" 
	d="
M81.356216,164.983276 
	C83.413551,162.327225 85.842247,159.685822 88.598732,156.981720 
	C88.404228,161.284866 85.066757,163.142151 81.356216,164.983276 
z"/>
<path fill="#1BD736" opacity="1.000000" stroke="none" 
	d="
M66.553719,111.490852 
	C63.433559,111.869415 59.881741,112.087227 56.169865,111.981857 
	C59.380558,111.549156 62.751308,111.439629 66.553719,111.490852 
z"/>
<path fill="#E1FDD3" opacity="1.000000" stroke="none" 
	d="
M121.399796,125.013214 
	C123.487572,122.416397 125.937599,119.826149 128.708267,117.141800 
	C126.606621,119.705055 124.184341,122.362419 121.399796,125.013214 
z"/>
<path fill="#E1FDD3" opacity="1.000000" stroke="none" 
	d="
M89.272568,156.929321 
	C91.387466,154.344452 93.856995,151.761154 96.645401,149.073807 
	C94.518585,151.623474 92.072884,154.277191 89.272568,156.929321 
z"/>
<path fill="#E1FDD3" opacity="1.000000" stroke="none" 
	d="
M107.312363,138.948212 
	C108.754761,137.039520 110.555908,135.124146 112.675247,133.104996 
	C111.219330,134.981339 109.445221,136.961441 107.312363,138.948212 
z"/>
<path fill="#1BD736" opacity="1.000000" stroke="none" 
	d="
M78.868965,115.038887 
	C76.345390,114.119171 73.821823,113.199455 71.154663,111.970123 
	C72.400459,111.505501 73.789848,111.350510 75.833710,111.298943 
	C77.289352,111.408401 78.090500,111.414421 78.891655,111.420448 
	C78.912682,111.684425 78.933708,111.948402 78.983635,112.944824 
	C78.964676,114.131142 78.916824,114.585014 78.868965,115.038887 
z"/>
<path fill="#E1FDD3" opacity="1.000000" stroke="none" 
	d="
M75.025330,163.344116 
	C76.770599,163.643326 78.499954,164.331451 80.599716,165.000137 
	C78.235535,168.134857 76.828491,167.840332 75.025330,163.344116 
z"/>
<path fill="#1BD736" opacity="1.000000" stroke="none" 
	d="
M46.833370,112.168304 
	C46.944492,111.754311 47.274937,111.596031 47.802063,111.249985 
	C49.405342,111.152512 50.811935,111.242798 52.607841,111.495743 
	C52.013630,112.587181 51.030117,113.515953 49.985519,114.762474 
	C48.967190,114.194824 48.009941,113.309425 46.833370,112.168304 
z"/>
<path fill="#E1FDD3" opacity="1.000000" stroke="none" 
	d="
M83.992874,38.624065 
	C82.556984,38.029453 81.124825,37.065163 79.366631,36.066322 
	C81.347260,33.321693 82.212105,33.709549 83.992874,38.624065 
z"/>
<path fill="#E1FDD3" opacity="1.000000" stroke="none" 
	d="
M173.707306,105.957397 
	C172.210144,105.065132 170.797394,103.796463 169.288605,102.223068 
	C171.829987,101.752464 173.576202,102.705688 173.707306,105.957397 
z"/>
<path fill="#E1FDD3" opacity="1.000000" stroke="none" 
	d="
M60.004654,148.355438 
	C61.619568,149.436691 63.218914,150.891769 64.924034,152.656464 
	C63.349567,151.553802 61.669331,150.141541 60.004654,148.355438 
z"/>
<path fill="#E1FDD3" opacity="1.000000" stroke="none" 
	d="
M78.924934,111.072403 
	C78.090500,111.414421 77.289352,111.408401 76.250748,111.217331 
	C76.720993,110.041847 77.428696,109.051414 78.457375,108.002899 
	C78.838303,108.871330 78.898262,109.797836 78.924934,111.072403 
z"/>
<path fill="#E1FDD3" opacity="1.000000" stroke="none" 
	d="
M129.418213,117.026855 
	C130.164825,115.754028 131.281784,114.479408 132.709106,113.114929 
	C131.942505,114.358398 130.865509,115.691727 129.418213,117.026855 
z"/>
<path fill="#E1FDD3" opacity="1.000000" stroke="none" 
	d="
M97.347557,148.982025 
	C98.096703,147.695267 99.223961,146.426208 100.657944,145.057281 
	C99.885002,146.304855 98.805336,147.652298 97.347557,148.982025 
z"/>
<path fill="#E1FDD3" opacity="1.000000" stroke="none" 
	d="
M113.374985,133.002594 
	C114.130142,131.729630 115.259163,130.465820 116.697510,129.111893 
	C115.920845,130.351761 114.834846,131.681747 113.374985,133.002594 
z"/>
<path fill="#A6F058" opacity="1.000000" stroke="none" 
	d="
M109.037514,64.632034 
	C107.768745,63.820572 106.399330,62.713623 105.060959,61.213692 
	C105.263184,60.830387 105.434372,60.840061 105.917664,61.139915 
	C106.411972,61.734711 106.680527,61.891441 107.035416,61.900276 
	C107.669235,62.712368 108.303047,63.524460 109.037514,64.632034 
z"/>
<path fill="#E1FDD3" opacity="1.000000" stroke="none" 
	d="
M89.239609,45.102547 
	C88.397324,44.262714 87.800529,43.425133 87.116241,42.289310 
	C88.017014,42.759109 89.005287,43.527149 89.982422,44.665684 
	C89.971298,45.036179 89.485107,45.104797 89.239609,45.102547 
z"/>
<path fill="#E1FDD3" opacity="1.000000" stroke="none" 
	d="
M117.390472,129.009598 
	C117.808784,128.061249 118.595718,127.115715 119.682495,126.078445 
	C119.241264,126.995285 118.500183,128.003845 117.390472,129.009598 
z"/>
<path fill="#E1FDD3" opacity="1.000000" stroke="none" 
	d="
M65.052231,153.296402 
	C65.670425,153.426224 66.308792,153.885925 66.993637,154.655975 
	C66.384209,154.519638 65.728310,154.072952 65.052231,153.296402 
z"/>
<path fill="#E1FDD3" opacity="1.000000" stroke="none" 
	d="
M103.294495,142.953186 
	C103.426132,142.332153 103.887627,141.695572 104.661018,141.015518 
	C104.523392,141.627243 104.073875,142.282455 103.294495,142.953186 
z"/>
<path fill="#E1FDD3" opacity="1.000000" stroke="none" 
	d="
M78.776718,36.188995 
	C79.026276,36.778988 79.017853,37.524921 78.909241,38.630859 
	C78.712288,38.108887 78.615517,37.226913 78.776718,36.188995 
z"/>
<path fill="#E1FDD3" opacity="1.000000" stroke="none" 
	d="
M100.935196,55.758831 
	C100.992538,55.997696 100.507729,56.032215 100.264931,55.767601 
	C100.022133,55.502983 99.964203,55.029629 99.964203,55.029629 
	C99.964203,55.029629 100.074020,54.933212 100.130341,54.883625 
	C100.477562,55.001705 100.707962,55.230350 100.935196,55.758831 
z"/>
<path fill="#E1FDD3" opacity="1.000000" stroke="none" 
	d="
M168.989609,101.585953 
	C168.711472,101.830940 168.448303,101.698303 168.238098,101.161476 
	C168.508865,100.974586 168.746704,101.124931 168.989609,101.585953 
z"/>
<path fill="#E1FDD3" opacity="1.000000" stroke="none" 
	d="
M106.945366,61.687622 
	C106.680527,61.891441 106.411972,61.734711 106.168671,61.195946 
	C106.422157,61.037674 106.671402,61.208725 106.945366,61.687622 
z"/>
<path fill="#67F236" opacity="1.000000" stroke="none" 
	d="
M78.903442,115.461082 
	C78.916824,114.585014 78.964676,114.131142 79.048302,113.336746 
	C86.798325,112.803749 94.513908,112.651787 102.226120,112.397278 
	C105.004860,112.305580 106.144081,113.580582 106.010056,116.629715 
	C103.880623,119.259293 101.744072,121.496864 99.289856,123.469040 
	C97.950241,122.470314 96.952385,121.146034 95.902298,121.103226 
	C90.607155,120.887383 85.298401,121.005486 79.761368,121.000229 
	C79.528305,120.994049 79.062370,120.976059 79.062378,120.976059 
	C79.020889,119.278465 78.979408,117.580872 78.903442,115.461082 
z"/>
<path fill="#5DEF38" opacity="1.000000" stroke="none" 
	d="
M79.994423,121.006409 
	C85.298401,121.005486 90.607155,120.887383 95.902298,121.103226 
	C96.952385,121.146034 97.950241,122.470314 98.990341,123.610367 
	C96.215805,126.935013 93.423119,129.852936 90.319595,132.525177 
	C89.850792,128.104416 88.099388,126.160309 83.698517,127.572426 
	C82.483688,127.962227 81.123970,127.900520 79.830734,128.045975 
	C79.829262,127.020813 79.827797,125.995651 79.888611,124.185593 
	C79.965401,122.602608 79.979912,121.804504 79.994423,121.006409 
z"/>
<path fill="#4DEC3A" opacity="1.000000" stroke="none" 
	d="
M79.714600,128.331024 
	C81.123970,127.900520 82.483688,127.962227 83.698517,127.572426 
	C88.099388,126.160309 89.850792,128.104416 90.024681,132.682678 
	C89.295029,133.750824 88.549461,134.415817 87.209488,134.819550 
	C84.104538,134.365448 81.593994,134.172653 79.083450,133.979843 
	C79.070892,133.539001 79.058334,133.098145 79.213051,132.233795 
	C79.271446,131.540634 79.162575,131.270966 79.053703,131.001297 
	C79.235291,130.206223 79.416870,129.411163 79.714600,128.331024 
z"/>
<path fill="#3FE838" opacity="1.000000" stroke="none" 
	d="
M79.051331,134.419159 
	C81.593994,134.172653 84.104538,134.365448 86.902115,134.872757 
	C84.226379,137.994675 81.263596,140.802078 78.355179,143.185486 
	C78.603111,142.178284 78.796684,141.595108 78.990250,141.011917 
	C78.999901,138.960770 79.009552,136.909607 79.051331,134.419159 
z"/>
<path fill="#1BD736" opacity="1.000000" stroke="none" 
	d="
M71.070305,136.346283 
	C73.954239,135.878189 75.696762,137.218018 75.979225,140.659790 
	C74.377037,139.573975 72.785751,138.110962 71.070305,136.346283 
z"/>
<path fill="#1BD736" opacity="1.000000" stroke="none" 
	d="
M61.062119,126.330795 
	C61.956005,126.795906 62.963383,127.551918 63.958473,128.687347 
	C63.022659,128.251740 62.099133,127.436714 61.062119,126.330795 
z"/>
<path fill="#77F535" opacity="1.000000" stroke="none" 
	d="
M117.295883,105.875450 
	C117.449791,105.048096 117.892807,104.080627 118.686508,103.077103 
	C118.553123,103.939133 118.069054,104.837234 117.295883,105.875450 
z"/>
<path fill="#1BD736" opacity="1.000000" stroke="none" 
	d="
M78.612030,141.008575 
	C78.796684,141.595108 78.603111,142.178284 78.145226,142.939789 
	C77.305794,142.606018 76.730667,142.093933 76.058990,141.306885 
	C76.719566,141.023041 77.476677,141.014130 78.612030,141.008575 
z"/>
<path fill="#87F836" opacity="1.000000" stroke="none" 
	d="
M132.171600,89.060425 
	C132.256699,88.741226 132.682327,88.756744 132.856064,88.880486 
	C132.914536,89.322144 132.725464,89.587425 132.246552,89.919022 
	C132.049210,89.818512 132.067856,89.599075 132.171600,89.060425 
z"/>
<path fill="#1BD736" opacity="1.000000" stroke="none" 
	d="
M50.007942,115.292389 
	C50.204296,115.226479 50.492897,115.403488 50.873920,115.824074 
	C50.677628,115.890198 50.388908,115.712753 50.007942,115.292389 
z"/>
<path fill="#1BD736" opacity="1.000000" stroke="none" 
	d="
M51.022026,116.278290 
	C51.216770,116.215775 51.500938,116.396767 51.876442,116.820023 
	C51.682331,116.882133 51.396893,116.701965 51.022026,116.278290 
z"/>
<path fill="#1BD736" opacity="1.000000" stroke="none" 
	d="
M52.024506,117.277344 
	C52.220848,117.214645 52.504257,117.396042 52.876694,117.820389 
	C52.681004,117.882706 52.396286,117.702080 52.024506,117.277344 
z"/>
<path fill="#1BD736" opacity="1.000000" stroke="none" 
	d="
M53.023636,118.279648 
	C53.219818,118.215866 53.502602,118.396950 53.877434,118.819092 
	C53.683071,118.881592 53.396656,118.703049 53.023636,118.279648 
z"/>
<path fill="#1BD736" opacity="1.000000" stroke="none" 
	d="
M70.020920,135.282242 
	C70.212746,135.219131 70.498878,135.396149 70.877464,135.814819 
	C70.685020,135.878448 70.400124,135.700409 70.020920,135.282242 
z"/>
<path fill="#1BD736" opacity="1.000000" stroke="none" 
	d="
M69.008919,134.289307 
	C69.208885,134.223419 69.494164,134.404724 69.869629,134.829895 
	C69.671280,134.894669 69.382759,134.715591 69.008919,134.289307 
z"/>
<path fill="#1BD736" opacity="1.000000" stroke="none" 
	d="
M58.015808,123.264862 
	C58.206352,123.203743 58.495152,123.383621 58.878731,123.806885 
	C58.687031,123.868805 58.400547,123.687332 58.015808,123.264862 
z"/>
<path fill="#1BD736" opacity="1.000000" stroke="none" 
	d="
M68.028687,133.273224 
	C68.225197,133.214081 68.506607,133.400040 68.872986,133.831177 
	C68.676506,133.890350 68.395058,133.704346 68.028687,133.273224 
z"/>
<path fill="#1BD736" opacity="1.000000" stroke="none" 
	d="
M67.038033,132.267517 
	C67.232948,132.207153 67.512436,132.391068 67.882111,132.815552 
	C67.689072,132.874680 67.405838,132.693253 67.038033,132.267517 
z"/>
<path fill="#1BD736" opacity="1.000000" stroke="none" 
	d="
M65.995239,131.278168 
	C66.183281,131.213409 66.480537,131.385788 66.877708,131.802521 
	C66.686562,131.869675 66.395508,131.692505 65.995239,131.278168 
z"/>
<path fill="#1BD736" opacity="1.000000" stroke="none" 
	d="
M54.034691,119.273994 
	C54.226002,119.219452 54.512047,119.407326 54.885811,119.843750 
	C54.692169,119.900330 54.410801,119.708374 54.034691,119.273994 
z"/>
<path fill="#1BD736" opacity="1.000000" stroke="none" 
	d="
M64.028519,129.277954 
	C64.217941,129.225861 64.505051,129.414108 64.877274,129.852844 
	C64.683662,129.908325 64.404938,129.713318 64.028519,129.277954 
z"/>
<path fill="#1BD736" opacity="1.000000" stroke="none" 
	d="
M56.004406,121.274055 
	C56.194901,121.217079 56.489864,121.402809 56.878487,121.839828 
	C56.684387,121.899658 56.396629,121.708214 56.004406,121.274055 
z"/>
<path fill="#1BD736" opacity="1.000000" stroke="none" 
	d="
M60.034985,125.271591 
	C60.229496,125.209732 60.510658,125.391159 60.882584,125.813118 
	C60.689445,125.874054 60.405540,125.694473 60.034985,125.271591 
z"/>
<path fill="#1BD736" opacity="1.000000" stroke="none" 
	d="
M59.035416,124.270653 
	C59.230103,124.208794 59.510422,124.390388 59.881561,124.811836 
	C59.688599,124.872498 59.404823,124.693306 59.035416,124.270653 
z"/>
<path fill="#4DEC3A" opacity="1.000000" stroke="none" 
	d="
M79.761368,121.000229 
	C79.979912,121.804504 79.965401,122.602608 79.900162,123.801247 
	C79.567123,123.358124 79.284813,122.514458 79.032440,121.323425 
	C79.062370,120.976059 79.528305,120.994049 79.761368,121.000229 
z"/>
<path fill="#3FE838" opacity="1.000000" stroke="none" 
	d="
M79.040550,131.250336 
	C79.162575,131.270966 79.271446,131.540634 79.226151,131.903198 
	C79.071983,131.996109 79.027397,131.499359 79.040550,131.250336 
z"/>
<path fill="#A6F058" opacity="1.000000" stroke="none" 
	d="
M114.030716,70.325211 
	C114.615654,70.464546 115.235832,70.934044 115.974075,71.676498 
	C115.416740,71.518097 114.741348,71.086731 114.030716,70.325211 
z"/>
<path fill="#87F836" opacity="1.000000" stroke="none" 
	d="
M129.124054,85.973701 
	C130.119598,86.428101 131.071091,87.299774 132.106842,88.478012 
	C131.154053,87.986710 130.117035,87.188843 129.124054,85.973701 
z"/>
<path fill="#A6F058" opacity="1.000000" stroke="none" 
	d="
M99.707352,54.919605 
	C99.964203,55.029629 100.022133,55.502983 100.023346,55.741295 
	C99.370140,55.543377 98.715729,55.107147 98.024673,54.348656 
	C98.475525,54.287457 98.963005,54.548519 99.707352,54.919605 
z"/>
</svg>