<?xml version="1.0" standalone="no"?>
<!DOCTYPE svg PUBLIC "-//W3C//DTD SVG 20010904//EN"
 "http://www.w3.org/TR/2001/REC-SVG-20010904/DTD/svg10.dtd">
<svg version="1.0" xmlns="http://www.w3.org/2000/svg"
 width="266.000000pt" height="266.000000pt" viewBox="0 0 266.000000 266.000000"
 preserveAspectRatio="xMidYMid meet">

<g transform="translate(0.000000,266.000000) scale(0.100000,-0.100000)"
fill="#1b810b" stroke="none">
<path d="M690 2630 c-245 -25 -393 -82 -495 -191 -96 -104 -143 -238 -167
-474 -16 -164 -16 -1119 1 -1275 44 -419 181 -582 547 -647 88 -16 170 -18
744 -18 680 0 747 4 890 47 205 63 324 186 379 390 42 155 46 225 46 868 0
629 -4 707 -41 855 -51 200 -178 338 -363 396 -160 49 -208 52 -851 55 -333 1
-643 -2 -690 -6z m883 -600 c15 -17 27 -41 27 -53 0 -13 -36 -158 -80 -322
-45 -165 -117 -435 -161 -600 -109 -410 -106 -399 -129 -428 -26 -33 -68 -42
-113 -23 -41 16 -59 45 -59 90 0 17 48 209 107 426 58 217 133 496 166 620 80
299 76 289 113 311 43 27 93 19 129 -21z m-657 -219 c36 -22 59 -70 50 -107
-4 -15 -61 -82 -126 -150 -113 -117 -160 -182 -160 -220 0 -43 51 -116 161
-229 67 -69 121 -134 125 -150 10 -41 -19 -93 -62 -111 -59 -25 -90 -7 -211
121 -170 183 -213 257 -213 369 0 106 44 183 202 350 141 150 171 166 234 127z
m1041 -115 c139 -141 187 -209 209 -296 36 -140 -23 -255 -245 -475 -84 -82
-94 -90 -131 -90 -54 0 -100 44 -100 94 0 45 -5 37 120 171 213 228 213 238
-9 472 -102 108 -111 121 -111 156 0 29 7 45 28 64 67 63 93 53 239 -96z"/>
</g>
</svg>
