<?xml version="1.0" standalone="no"?>
<!DOCTYPE svg PUBLIC "-//W3C//DTD SVG 20010904//EN"
 "http://www.w3.org/TR/2001/REC-SVG-20010904/DTD/svg10.dtd">
<svg version="1.0" xmlns="http://www.w3.org/2000/svg"
 width="266.000000pt" height="266.000000pt" viewBox="0 0 266.000000 266.000000"
 preserveAspectRatio="xMidYMid meet">

<g transform="translate(0.000000,266.000000) scale(0.100000,-0.100000)"
fill="#1b810b" stroke="none">
<path d="M690 2630 c-245 -25 -393 -82 -495 -191 -95 -103 -142 -235 -166
-469 -17 -157 -17 -1123 0 -1280 44 -420 181 -582 547 -647 88 -16 170 -18
744 -18 680 0 747 4 890 47 218 67 339 201 389 433 36 163 43 330 38 916 -4
577 -9 655 -53 799 -54 181 -177 306 -353 361 -160 49 -208 52 -851 55 -333 1
-643 -2 -690 -6z m397 -532 c18 -17 23 -32 23 -75 l0 -53 225 0 225 0 0 49 c0
63 28 101 73 101 55 -1 87 -43 87 -115 l0 -33 69 -4 c88 -5 152 -42 196 -112
l30 -49 3 -486 c2 -332 -1 -500 -8 -531 -16 -62 -55 -116 -109 -148 l-46 -27
-498 -3 c-318 -2 -511 1 -535 8 -55 14 -106 57 -139 115 l-28 50 -3 467 c-2
292 1 488 7 523 22 120 114 195 238 195 l63 0 0 52 c0 39 5 57 22 75 28 30 74
30 105 1z"/>
<path d="M1328 1812 l-218 -2 0 -46 c0 -58 -12 -79 -51 -93 -24 -8 -37 -7 -59
4 -33 17 -40 33 -40 91 l0 44 -53 0 c-82 0 -91 -12 -95 -118 -4 -88 -3 -90 20
-94 12 -2 249 -2 526 0 l502 2 0 83 c0 112 -12 129 -88 125 l-55 -3 -1 -41
c-1 -44 -28 -94 -50 -94 -8 0 -21 -3 -30 -6 -10 -4 -27 6 -46 24 -24 25 -30
39 -30 76 0 24 -3 46 -7 48 -5 2 -106 2 -225 0z"/>
<path d="M810 1134 c0 -301 3 -336 34 -356 6 -4 228 -8 494 -8 469 0 483 1
502 20 19 19 20 33 20 335 l0 315 -525 0 -525 0 0 -306z m288 224 c16 -16 16
-190 0 -206 -16 -16 -190 -16 -206 0 -16 16 -16 190 0 206 8 8 46 12 103 12
57 0 95 -4 103 -12z m340 0 c8 -8 12 -46 12 -103 0 -57 -4 -95 -12 -103 -16
-16 -190 -16 -206 0 -16 16 -16 190 0 206 8 8 46 12 103 12 57 0 95 -4 103
-12z m340 0 c8 -8 12 -46 12 -103 0 -57 -4 -95 -12 -103 -16 -16 -190 -16
-206 0 -8 8 -12 46 -12 103 0 57 4 95 12 103 8 8 46 12 103 12 57 0 95 -4 103
-12z"/>
</g>
</svg>
